<?xml version="1.0" encoding="utf-8"?>
<svg id="Discord-Logo" xmlns="http://www.w3.org/2000/svg" viewBox="0 0 126.6 126.6">
  <path fill="#fff" id="Discord-Symbol-White" class="cls-1" d="M 81.15 15.3 C 79.912 17.498 78.801 19.771 77.791 22.094 C 68.193 20.655 58.419 20.655 48.796 22.094 C 47.811 19.771 46.675 17.498 45.437 15.3 C 36.421 16.841 27.631 19.544 19.297 23.357 C 2.779 47.831 -1.691 71.673 0.531 95.187 C 10.204 102.334 21.039 107.79 32.582 111.275 C 35.183 107.79 37.482 104.077 39.451 100.213 C 35.713 98.824 32.102 97.081 28.642 95.061 C 29.551 94.404 30.435 93.722 31.294 93.065 C 51.575 102.612 75.063 102.612 95.369 93.065 C 96.228 93.772 97.112 94.454 98.021 95.061 C 94.561 97.106 90.95 98.824 87.186 100.238 C 89.156 104.102 91.455 107.815 94.056 111.3 C 105.598 107.815 116.433 102.385 126.107 95.237 C 128.733 67.96 121.611 44.32 107.29 23.383 C 98.981 19.569 90.192 16.866 81.175 15.351 L 81.15 15.3 Z M 42.28 80.715 C 36.042 80.715 30.864 75.057 30.864 68.061 C 30.864 61.065 35.84 55.383 42.255 55.383 C 48.67 55.383 53.772 61.091 53.671 68.061 C 53.57 75.032 48.645 80.715 42.28 80.715 Z M 84.358 80.715 C 78.094 80.715 72.967 75.057 72.967 68.061 C 72.967 61.065 77.942 55.383 84.358 55.383 C 90.773 55.383 95.849 61.091 95.748 68.061 C 95.647 75.032 90.722 80.715 84.358 80.715 Z"/>
</svg>